<?xml version="1.0" encoding="UTF-8" standalone="no"?>
<!DOCTYPE svg PUBLIC "-//W3C//DTD SVG 1.1//EN" "http://www.w3.org/Graphics/SVG/1.1/DTD/svg11.dtd">
<svg version="1.1" xmlns:dc="http://purl.org/dc/elements/1.1/" xmlns:xl="http://www.w3.org/1999/xlink" xmlns="http://www.w3.org/2000/svg" viewBox="351 242 347 376" width="347" height="376">
  <defs/>
  <metadata> Produced by OmniGraffle 7.17.5\n2020-11-27 16:09:02 +0000</metadata>
  <g id="Canvas_1" fill-opacity="1" stroke-opacity="1" fill="none" stroke="none" stroke-dasharray="none">
    <title>Canvas 1</title>
    <g id="Canvas_1_Layer_2">
      <title>Layer 2</title>
      <g id="Graphic_45">
        <path d="M 575.0312 268.49724 C 547.2116 344.46214 473.7149 490.19713 391.42046 540 C 450.33476 558.2467 497.22296 546.30665 537.24574 531.7392 C 566.9218 460.2562 591.1029 350.0677 575.0312 268.49724 Z M 556.1919 524.5644 C 598.76325 508.07223 633.7411 493.89824 668.4205 521 C 689.9305 443.2444 680.0834 327.97545 583.42046 243 C 583.3718 243.1741 583.3226 243.3491 583.2729 243.525 C 592.6095 301.44098 605.5915 398.8676 556.19186 524.5644 Z" fill="#232f3e"/>
      </g>
      <g id="Graphic_51">
        <path d="M 403.644 586.7557 C 404.8622 587.54964 405.94114 588.17515 406.8261 588.5991 L 429.35077 588.78774 C 423.2892 586.63576 417.7798 585.1886 413.42046 585.1886 C 410.58225 585.1886 407.2509 585.7802 403.644 586.7557 Z M 531.12555 589.6401 L 559.40094 589.8769 C 554.6238 587.6799 550.02124 586.1886 545.92046 586.1886 C 541.9166 586.1886 536.79954 587.57714 531.12555 589.6401 Z M 632.48544 590.489 L 651.8183 590.6509 C 654.2402 589.06395 656.47355 587.41524 658.5329 585.6628 C 655.61645 584.74736 652.8569 584.1886 650.4205 584.1886 C 645.6527 584.1886 639.28745 586.9041 632.48544 590.489 Z M 668.2643 574.6091 C 674.95264 564.2003 678.5701 550.0103 680.4918 528.044 C 638.4809 563.78294 433.1326 560.5538 375.69326 553.1289 L 375.69326 553.1289 C 375.96106 559.4878 382.1036 567.6804 389.07303 574.6537 C 396.6924 571.7719 405.0285 569.6886 412.92046 569.6886 C 434.5531 569.6886 465.6714 587 481.42046 587 C 497.1695 587 522.2031 569.87025 545.3215 569.87025 C 568.4399 569.87025 575.0604 588.1886 595.92046 588.1886 C 616.7805 588.1886 636.5486 568.1886 649.9205 568.1886 C 655.15975 568.1886 661.8677 570.99386 668.2643 574.6091 Z" fill="#232f3e"/>
      </g>
      <g id="Graphic_38">
        <path d="M 361.92046 596.6886 C 366.3183 591.8413 391.2878 576.1886 412.92046 576.1886 C 434.5531 576.1886 465.6714 593.5 481.42046 593.5 C 497.1695 593.5 522.2031 576.37025 545.3215 576.37025 C 568.4399 576.37025 575.0604 594.6886 595.92046 594.6886 C 616.7805 594.6886 636.5486 574.6886 649.9205 574.6886 C 663.2923 574.6886 686.2308 592.9615 689.1429 596.3364 C 692.055 599.7113 696.6646 606.1735 692.9205 607.6886 C 689.1764 609.2037 664.446 590.6886 650.4205 590.6886 C 636.3949 590.6886 608.54424 614.1886 596.42046 614.1886 C 584.2967 614.1886 561.4912 592.6886 545.92046 592.6886 C 530.3497 592.6886 497.9421 613.6886 481.42046 613.6886 C 464.89884 613.6886 430.4175 591.6886 413.42046 591.6886 C 396.4234 591.6886 361.74127 612.9053 356.0954 610.7253 C 350.44953 608.5453 357.5226 601.53595 361.92046 596.6886 Z" fill="#232f3e"/>
        <path d="M 361.92046 596.6886 C 366.3183 591.8413 391.2878 576.1886 412.92046 576.1886 C 434.5531 576.1886 465.6714 593.5 481.42046 593.5 C 497.1695 593.5 522.2031 576.37025 545.3215 576.37025 C 568.4399 576.37025 575.0604 594.6886 595.92046 594.6886 C 616.7805 594.6886 636.5486 574.6886 649.9205 574.6886 C 663.2923 574.6886 686.2308 592.9615 689.1429 596.3364 C 692.055 599.7113 696.6646 606.1735 692.9205 607.6886 C 689.1764 609.2037 664.446 590.6886 650.4205 590.6886 C 636.3949 590.6886 608.54424 614.1886 596.42046 614.1886 C 584.2967 614.1886 561.4912 592.6886 545.92046 592.6886 C 530.3497 592.6886 497.9421 613.6886 481.42046 613.6886 C 464.89884 613.6886 430.4175 591.6886 413.42046 591.6886 C 396.4234 591.6886 361.74127 612.9053 356.0954 610.7253 C 350.44953 608.5453 357.5226 601.53595 361.92046 596.6886 Z" stroke="white" stroke-opacity="0" stroke-linecap="round" stroke-linejoin="round" stroke-width="6"/>
      </g>
    </g>
  </g>
</svg>
